<mxfile host="app.diagrams.net" agent="Mozilla/5.0 (Windows NT 10.0; Win64; x64) AppleWebKit/537.36 (KHTML, like Gecko) Chrome/134.0.0.0 Safari/537.36" version="26.1.1">
  <diagram id="prtHgNgQTEPvFCAcTncT" name="Page-1">
    <mxGraphModel dx="1050" dy="565" grid="1" gridSize="10" guides="1" tooltips="1" connect="1" arrows="1" fold="1" page="1" pageScale="1" pageWidth="827" pageHeight="1169" math="0" shadow="0">
      <root>
        <mxCell id="0" />
        <mxCell id="1" parent="0" />
        <mxCell id="PolnotQcOmMcgYBt6xMY-1" value="" style="ellipse;whiteSpace=wrap;html=1;aspect=fixed;fillColor=#0D0D0D;" vertex="1" parent="1">
          <mxGeometry x="20" y="250" width="50" height="50" as="geometry" />
        </mxCell>
        <mxCell id="PolnotQcOmMcgYBt6xMY-3" value="" style="endArrow=classic;html=1;rounded=0;" edge="1" parent="1">
          <mxGeometry width="50" height="50" relative="1" as="geometry">
            <mxPoint x="70" y="280" as="sourcePoint" />
            <mxPoint x="150" y="280" as="targetPoint" />
            <Array as="points">
              <mxPoint x="100" y="280" />
            </Array>
          </mxGeometry>
        </mxCell>
        <mxCell id="PolnotQcOmMcgYBt6xMY-4" value="Pantalla Login" style="rounded=1;whiteSpace=wrap;html=1;" vertex="1" parent="1">
          <mxGeometry x="150" y="250" width="120" height="60" as="geometry" />
        </mxCell>
        <mxCell id="PolnotQcOmMcgYBt6xMY-5" value="" style="endArrow=classic;html=1;rounded=0;exitX=0.188;exitY=1.083;exitDx=0;exitDy=0;exitPerimeter=0;" edge="1" parent="1" source="PolnotQcOmMcgYBt6xMY-4">
          <mxGeometry width="50" height="50" relative="1" as="geometry">
            <mxPoint x="210" y="370" as="sourcePoint" />
            <mxPoint x="172.92668295934232" y="390" as="targetPoint" />
          </mxGeometry>
        </mxCell>
        <mxCell id="PolnotQcOmMcgYBt6xMY-7" value="[Credencials errònies]" style="text;html=1;align=center;verticalAlign=middle;whiteSpace=wrap;rounded=0;" vertex="1" parent="1">
          <mxGeometry x="70" y="330" width="60" height="30" as="geometry" />
        </mxCell>
        <mxCell id="PolnotQcOmMcgYBt6xMY-8" value="missatge error" style="rounded=1;whiteSpace=wrap;html=1;" vertex="1" parent="1">
          <mxGeometry x="160" y="390" width="120" height="60" as="geometry" />
        </mxCell>
        <mxCell id="PolnotQcOmMcgYBt6xMY-10" value="" style="endArrow=classic;html=1;rounded=0;exitX=0.572;exitY=-0.05;exitDx=0;exitDy=0;exitPerimeter=0;" edge="1" parent="1" source="PolnotQcOmMcgYBt6xMY-8">
          <mxGeometry width="50" height="50" relative="1" as="geometry">
            <mxPoint x="210" y="370" as="sourcePoint" />
            <mxPoint x="229" y="320" as="targetPoint" />
          </mxGeometry>
        </mxCell>
        <mxCell id="PolnotQcOmMcgYBt6xMY-11" value="" style="endArrow=classic;html=1;rounded=0;exitX=0.398;exitY=1.07;exitDx=0;exitDy=0;exitPerimeter=0;" edge="1" parent="1" source="PolnotQcOmMcgYBt6xMY-8">
          <mxGeometry width="50" height="50" relative="1" as="geometry">
            <mxPoint x="210" y="480" as="sourcePoint" />
            <mxPoint x="208" y="510" as="targetPoint" />
          </mxGeometry>
        </mxCell>
        <mxCell id="PolnotQcOmMcgYBt6xMY-12" value="[Opció Sortir]" style="text;html=1;align=center;verticalAlign=middle;whiteSpace=wrap;rounded=0;" vertex="1" parent="1">
          <mxGeometry x="130" y="460" width="60" height="30" as="geometry" />
        </mxCell>
        <mxCell id="PolnotQcOmMcgYBt6xMY-13" value="" style="ellipse;whiteSpace=wrap;html=1;aspect=fixed;fillStyle=auto;fillColor=light-dark(#f5f0f0, #696969);" vertex="1" parent="1">
          <mxGeometry x="185" y="510" width="50" height="50" as="geometry" />
        </mxCell>
        <mxCell id="PolnotQcOmMcgYBt6xMY-14" value="" style="ellipse;whiteSpace=wrap;html=1;aspect=fixed;fillColor=light-dark(#9c9c9c, #ededed);" vertex="1" parent="1">
          <mxGeometry x="190" y="515" width="40" height="40" as="geometry" />
        </mxCell>
        <mxCell id="PolnotQcOmMcgYBt6xMY-15" value="[Opció repetir]" style="text;html=1;align=center;verticalAlign=middle;whiteSpace=wrap;rounded=0;" vertex="1" parent="1">
          <mxGeometry x="235" y="330" width="60" height="30" as="geometry" />
        </mxCell>
        <mxCell id="PolnotQcOmMcgYBt6xMY-17" value="[Credencials OK]" style="text;html=1;align=center;verticalAlign=middle;whiteSpace=wrap;rounded=0;" vertex="1" parent="1">
          <mxGeometry x="350" y="230" width="10" height="30" as="geometry" />
        </mxCell>
        <mxCell id="PolnotQcOmMcgYBt6xMY-18" value="Rep rol" style="text;html=1;align=center;verticalAlign=middle;whiteSpace=wrap;rounded=0;" vertex="1" parent="1">
          <mxGeometry x="325" y="280" width="60" height="30" as="geometry" />
        </mxCell>
        <mxCell id="PolnotQcOmMcgYBt6xMY-25" value="" style="endArrow=none;html=1;rounded=0;exitX=1;exitY=0.5;exitDx=0;exitDy=0;" edge="1" parent="1" source="PolnotQcOmMcgYBt6xMY-4">
          <mxGeometry width="50" height="50" relative="1" as="geometry">
            <mxPoint x="390" y="460" as="sourcePoint" />
            <mxPoint x="440" y="280" as="targetPoint" />
            <Array as="points">
              <mxPoint x="310" y="280" />
            </Array>
          </mxGeometry>
        </mxCell>
        <mxCell id="PolnotQcOmMcgYBt6xMY-26" value="" style="endArrow=classic;html=1;rounded=0;entryX=0;entryY=0.5;entryDx=0;entryDy=0;" edge="1" parent="1" target="PolnotQcOmMcgYBt6xMY-28">
          <mxGeometry width="50" height="50" relative="1" as="geometry">
            <mxPoint x="440" y="280" as="sourcePoint" />
            <mxPoint x="520" y="210" as="targetPoint" />
            <Array as="points">
              <mxPoint x="500" y="230" />
            </Array>
          </mxGeometry>
        </mxCell>
        <mxCell id="PolnotQcOmMcgYBt6xMY-27" value="" style="endArrow=classic;html=1;rounded=0;" edge="1" parent="1">
          <mxGeometry width="50" height="50" relative="1" as="geometry">
            <mxPoint x="440" y="280" as="sourcePoint" />
            <mxPoint x="560" y="360" as="targetPoint" />
            <Array as="points" />
          </mxGeometry>
        </mxCell>
        <mxCell id="PolnotQcOmMcgYBt6xMY-28" value="Pantalla negoci" style="rounded=1;whiteSpace=wrap;html=1;" vertex="1" parent="1">
          <mxGeometry x="570" y="150" width="120" height="60" as="geometry" />
        </mxCell>
        <mxCell id="PolnotQcOmMcgYBt6xMY-29" value="Pantalla admin" style="rounded=1;whiteSpace=wrap;html=1;" vertex="1" parent="1">
          <mxGeometry x="560" y="330" width="120" height="60" as="geometry" />
        </mxCell>
        <mxCell id="PolnotQcOmMcgYBt6xMY-30" value="" style="endArrow=classic;html=1;rounded=0;" edge="1" parent="1">
          <mxGeometry width="50" height="50" relative="1" as="geometry">
            <mxPoint x="680" y="360" as="sourcePoint" />
            <mxPoint x="750" y="280" as="targetPoint" />
            <Array as="points" />
          </mxGeometry>
        </mxCell>
        <mxCell id="PolnotQcOmMcgYBt6xMY-32" value="" style="endArrow=classic;html=1;rounded=0;exitX=1;exitY=0.5;exitDx=0;exitDy=0;" edge="1" parent="1" source="PolnotQcOmMcgYBt6xMY-28">
          <mxGeometry width="50" height="50" relative="1" as="geometry">
            <mxPoint x="700" y="180" as="sourcePoint" />
            <mxPoint x="740" y="230" as="targetPoint" />
            <Array as="points" />
          </mxGeometry>
        </mxCell>
        <mxCell id="PolnotQcOmMcgYBt6xMY-33" value="[Opció Sortir]" style="text;html=1;align=center;verticalAlign=middle;whiteSpace=wrap;rounded=0;" vertex="1" parent="1">
          <mxGeometry x="710" y="180" width="60" height="30" as="geometry" />
        </mxCell>
        <mxCell id="PolnotQcOmMcgYBt6xMY-34" value="[Opció Sortir]" style="text;html=1;align=center;verticalAlign=middle;whiteSpace=wrap;rounded=0;" vertex="1" parent="1">
          <mxGeometry x="720" y="310" width="60" height="30" as="geometry" />
        </mxCell>
        <mxCell id="PolnotQcOmMcgYBt6xMY-36" value="" style="ellipse;whiteSpace=wrap;html=1;aspect=fixed;" vertex="1" parent="1">
          <mxGeometry x="740" y="230" width="50" height="50" as="geometry" />
        </mxCell>
        <mxCell id="PolnotQcOmMcgYBt6xMY-37" value="" style="ellipse;whiteSpace=wrap;html=1;aspect=fixed;fillColor=light-dark(#9c9c9c, #ededed);" vertex="1" parent="1">
          <mxGeometry x="745" y="235" width="40" height="40" as="geometry" />
        </mxCell>
        <mxCell id="PolnotQcOmMcgYBt6xMY-40" value="&lt;h1 style=&quot;margin-top: 0px;&quot;&gt;OpticYouEscriptori&lt;/h1&gt;&lt;div&gt;&amp;nbsp; &amp;nbsp; TEA2&amp;nbsp;&lt;/div&gt;" style="text;html=1;whiteSpace=wrap;overflow=hidden;rounded=0;" vertex="1" parent="1">
          <mxGeometry x="30" y="90" width="270" height="120" as="geometry" />
        </mxCell>
      </root>
    </mxGraphModel>
  </diagram>
</mxfile>
